# xmcd
#
# Track frame offsets: 
#        150
#        16962
#        30102
#        46972
#        65820
#        79490
#        95357
#        112585
#        129015
#        144975
#
# Disc length: 2211 seconds
#
# Revision: 5
# Processed by: cddbd v1.5.2PL0 Copyright (c) Steve Scherf et al.
# Submitted via: ExactAudioCopy v0.95b4
#
DISCID=7008a10a
DTITLE=Bloomfield, Hammond, Dr.John - Triumvirate
DYEAR=1973
DGENRE=Blues
TTITLE0=Cha-Dooky-Doo
TTITLE1=Last Night
TTITLE2=I Yi Yi
TTITLE3=Just To Be With You
TTITLE4=Baby Let Me Kiss You
TTITLE5=Sho Bout To Drive Me Wild
TTITLE6=It Hurts Me Too
TTITLE7=Rock Me Baby
TTITLE8=Ground Hog Blues
TTITLE9=Pretty Thing
EXTD=
EXTT0=
EXTT1=
EXTT2=
EXTT3=
EXTT4=
EXTT5=
EXTT6=
EXTT7=
EXTT8=
EXTT9=
PLAYORDER=
